<svg xmlns="http://www.w3.org/2000/svg" viewBox="0 0 512 512">
  <defs>
    <linearGradient id="bgGradient" x1="0%" y1="0%" x2="100%" y2="100%">
      <stop offset="0%" style="stop-color:#6366f1"/>
      <stop offset="100%" style="stop-color:#4f46e5"/>
    </linearGradient>
  </defs>
  <!-- Background -->
  <rect width="512" height="512" rx="96" fill="url(#bgGradient)"/>
  <!-- Calendar base -->
  <rect x="96" y="128" width="320" height="288" rx="24" fill="white" opacity="0.95"/>
  <!-- Calendar header -->
  <rect x="96" y="128" width="320" height="64" rx="24" fill="white"/>
  <rect x="96" y="168" width="320" height="24" fill="white"/>
  <!-- Calendar rings -->
  <rect x="160" y="104" width="16" height="48" rx="8" fill="#4f46e5"/>
  <rect x="336" y="104" width="16" height="48" rx="8" fill="#4f46e5"/>
  <!-- Recurring symbol (circular arrows) -->
  <g transform="translate(256, 296)">
    <path d="M-48 0 A48 48 0 1 1 0 48" stroke="#6366f1" stroke-width="16" fill="none" stroke-linecap="round"/>
    <path d="M48 0 A48 48 0 1 1 0 -48" stroke="#6366f1" stroke-width="16" fill="none" stroke-linecap="round"/>
    <!-- Arrow heads -->
    <polygon points="-48,-20 -48,20 -28,0" fill="#6366f1"/>
    <polygon points="48,20 48,-20 28,0" fill="#6366f1"/>
  </g>
  <!-- Dollar sign -->
  <text x="256" y="220" font-family="Arial, sans-serif" font-size="48" font-weight="bold" fill="#4f46e5" text-anchor="middle">$</text>
</svg>
